#!OML:ASF H:\BabyWalks\Project 1\Capture day 1\Session 1\baby.ASF
:FULLY-SPECIFIED
:DEGREES
425
root 2.87748 17.6768 -1.11594 -161.78 77.3941 -158.259
lowerback 19.0709 2.04189 0.176467
upperback 7.6463 3.3448 1.35889
thorax -2.50906 1.8901 0.633004
lowerneck 0.895632 -5.20855 4.95429
upperneck -3.19354 -6.83575 0.116753
head -1.30967 -3.47087 -0.68103
rclavicle -3.14577e-014 -2.78299e-015
rhumerus -42.3477 11.5963 -80.1971
rradius 59.7672
rwrist -7.61561
rhand -10.9908 -16.7449
rfingers 7.12502
rthumb 15.0294 -46.1794
lclavicle -3.14577e-014 -2.78299e-015
lhumerus -60.7026 -0.970655 76.9386
lradius 56.1191
lwrist 2.52981
lhand -5.22768 7.08581
lfingers 7.12502
lthumb 20.5746 36.0155
rfemur -4.12765 8.90928 24.6878
rtibia 25.2277
rfoot -16.083 2.98557
rtoes 3.62554
lfemur -9.42786 -10.1492 -9.82843
ltibia 32.4888
lfoot -24.7298 -20.7502
ltoes 1.52216
426
root 2.93087 17.6691 -1.12301 -160.28 77.9477 -156.213
lowerback 18.6263 2.07267 0.0722192
upperback 7.56499 3.33824 1.20995
thorax -2.36333 1.87939 0.553308
lowerneck 0.934321 -4.96891 4.96402
upperneck -2.55807 -6.51839 0.252105
head -1.10212 -3.30355 -0.654643
rclavicle -3.44891e-014 -3.97569e-015
rhumerus -42.6597 11.7278 -80.6775
rradius 59.7737
rwrist -7.54783
rhand -10.658 -16.8159
rfingers 7.12502
rthumb 15.35 -46.2261
lclavicle -3.44891e-014 -3.97569e-015
lhumerus -60.6926 -1.21646 76.8922
lradius 56.8684
lwrist 2.86645
lhand -5.36678 7.24625
lfingers 7.12502
lthumb 20.441 36.1903
rfemur -3.14509 8.998 25.0353
rtibia 24.6664
rfoot -15.9869 3.50853
rtoes 3.92032
lfemur -8.34531 -10.0688 -9.75157
ltibia 32.3649
lfoot -25.0875 -20.1812
ltoes 1.2693
427
root 2.98367 17.6613 -1.1307 -158.692 78.5129 -154.092
lowerback 18.1812 2.10607 -0.0432012
upperback 7.47843 3.3345 1.05085
thorax -2.22202 1.86993 0.468932
lowerneck 0.979917 -4.72579 4.98046
upperneck -1.93292 -6.19648 0.390706
head -0.901166 -3.13275 -0.627196
rclavicle 1.38155e-014 -1.19271e-015
rhumerus -42.9828 11.8483 -81.137
rradius 59.7565
rwrist -7.49298
rhand -10.375 -16.874
rfingers 7.12502
rthumb 15.6225 -46.2631
lclavicle 1.38155e-014 -1.19271e-015
lhumerus -60.6887 -1.45501 76.8104
lradius 57.6019
lwrist 3.17033
lhand -5.51424 7.3862
lfingers 7.12502
lthumb 20.2993 36.3454
rfemur -2.20061 9.0698 25.3372
rtibia 24.1533
rfoot -15.8992 4.06751
rtoes 4.23353
lfemur -7.25054 -9.97309 -9.71198
ltibia 32.2002
lfoot -25.4198 -19.6156
ltoes 1.01999
428
root 3.03574 17.6534 -1.13877 -156.984 79.0847 -151.871
lowerback 17.7309 2.14235 -0.178284
upperback 7.38651 3.33308 0.890118
thorax -2.08381 1.8612 0.393951
lowerneck 1.0376 -4.48076 4.99549
upperneck -1.32696 -5.87185 0.530031
head -0.710071 -2.95956 -0.597928
rclavicle -2.72335e-014 7.15625e-015
rhumerus -43.3085 11.9689 -81.5647
rradius 59.7123
rwrist -7.44518
rhand -10.1239 -16.9199
rfingers 7.12502
rthumb 15.8643 -46.29
lclavicle -2.72335e-014 7.15625e-015
lhumerus -60.6852 -1.67326 76.6986
lradius 58.3012
lwrist 3.42465
lhand -5.67402 7.48224
lfingers 7.12502
lthumb 20.1457 36.4577
rfemur -1.30311 9.12829 25.5958
rtibia 23.6937
rfoot -15.8219 4.65845
rtoes 4.57164
lfemur -6.15281 -9.85545 -9.7023
ltibia 31.9952
lfoot -25.727 -19.0655
ltoes 0.780145
429
root 3.08695 17.6454 -1.14702 -155.167 79.658 -149.563
lowerback 17.2777 2.17972 -0.336562
upperback 7.28721 3.33122 0.725772
thorax -1.95199 1.85178 0.328638
lowerneck 1.11162 -4.23558 5.01591
upperneck -0.742028 -5.54635 0.666065
head -0.530242 -2.78508 -0.569159
rclavicle -6.7388e-014 2.54444e-014
rhumerus -43.6362 12.0828 -81.9664
rradius 59.6327
rwrist -7.39223
rhand -9.91713 -16.9447
rfingers 7.12502
rthumb 16.0634 -46.2989
lclavicle -6.7388e-014 2.54444e-014
lhumerus -60.6792 -1.87003 76.5478
lradius 58.9467
lwrist 3.60098
lhand -5.81794 7.49559
lfingers 7.12502
lthumb 20.0074 36.4856
rfemur -0.455636 9.1623 25.8059
rtibia 23.2908
rfoot -15.7584 5.28299
rtoes 4.92583
lfemur -5.058 -9.71919 -9.72413
ltibia 31.7537
lfoot -26.0087 -18.5359
ltoes 0.553945
430
root 3.13719 17.6372 -1.15522 -153.172 80.2231 -147.1
lowerback 16.8158 2.21637 -0.512283
upperback 7.17968 3.32791 0.564281
thorax -1.8245 1.84111 0.276916
lowerneck 1.19973 -3.99053 5.03599
upperneck -0.173608 -5.22045 0.802407
head -0.35932 -2.60959 -0.539067
rclavicle 1.96797e-014 -1.59028e-015
rhumerus -43.9623 12.1824 -82.3368
rradius 59.5198
rwrist -7.31059
rhand -9.74511 -16.951
rfingers 7.12502
rthumb 16.2291 -46.2918
lclavicle 1.96797e-014 -1.59028e-015
lhumerus -60.6649 -2.04504 76.3671
lradius 59.5296
lwrist 3.71263
lhand -5.97216 7.42247
lfingers 7.12502
lthumb 19.8591 36.4279
rfemur 0.335259 9.1756 25.98
rtibia 22.9428
rfoot -15.7089 5.93404
rtoes 5.29932
lfemur -3.98099 -9.56205 -9.76067
ltibia 31.4841
lfoot -26.2702 -18.0336
ltoes 0.335073
431
root 3.1863 17.6287 -1.16331 -150.973 80.7747 -144.464
lowerback 16.3425 2.25161 -0.706966
upperback 7.06524 3.32248 0.406846
thorax -1.69862 1.82889 0.241115
lowerneck 1.28425 -3.74633 5.06325
upperneck 0.386954 -4.89627 0.930936
head -0.191973 -2.43398 -0.511937
rclavicle 3.71727e-014 -1.03368e-014
rhumerus -44.2722 12.266 -82.6692
rradius 59.3644
rwrist -7.20086
rhand -9.6092 -16.9315
rfingers 7.12502
rthumb 16.3599 -46.2615
lclavicle 3.71727e-014 -1.03368e-014
lhumerus -60.6287 -2.20028 76.1642
lradius 60.0428
lwrist 3.76799
lhand -6.14027 7.30747
lfingers 7.12502
lthumb 19.6975 36.3295
rfemur 1.06535 9.16621 26.1185
rtibia 22.6451
rfoot -15.6736 6.60623
rtoes 5.68676
lfemur -2.93431 -9.38931 -9.80868
ltibia 31.1968
lfoot -26.5129 -17.559
ltoes 0.132469
432
root 3.23417 17.6201 -1.17127 -148.493 81.3018 -141.581
lowerback 15.8561 2.27986 -0.908728
upperback 6.94061 3.30933 0.254473
thorax -1.57622 1.81243 0.216462
lowerneck 1.36408 -3.49912 5.09908
upperneck 0.948767 -4.56872 1.05266
head -0.0248444 -2.25552 -0.487934
rclavicle 3.79679e-014 -6.36111e-015
rhumerus -44.5668 12.3301 -82.9662
rradius 59.1746
rwrist -7.06021
rhand -9.47854 -16.8958
rfingers 7.12502
rthumb 16.4858 -46.2153
lclavicle 3.79679e-014 -6.36111e-015
lhumerus -60.5705 -2.32748 75.9327
lradius 60.4746
lwrist 3.775
lhand -6.30615 7.14245
lfingers 7.12502
lthumb 19.538 36.1807
rfemur 1.73294 9.13592 26.2342
rtibia 22.3891
rfoot -15.6481 7.28958
rtoes 6.07616
lfemur -1.93145 -9.20432 -9.8541
ltibia 30.9036
lfoot -26.743 -17.1097
ltoes -0.0590732
433
root 3.28063 17.6113 -1.17907 -145.665 81.792 -138.385
lowerback 15.3561 2.29981 -1.10902
upperback 6.8043 3.28807 0.110262
thorax -1.45819 1.79161 0.201276
lowerneck 1.43912 -3.25144 5.15689
upperneck 1.51339 -4.24089 1.1551
head 0.142305 -2.07571 -0.473145
rclavicle 1.63003e-014 5.56597e-015
rhumerus -44.848 12.37 -83.2235
rradius 58.9528
rwrist -6.8731
rhand -9.34856 -16.8438
rfingers 7.12502
rthumb 16.6109 -46.153
lclavicle 1.63003e-014 5.56597e-015
lhumerus -60.4873 -2.4327 75.6787
lradius 60.8254
lwrist 3.75083
lhand -6.47154 6.94663
lfingers 7.12502
lthumb 19.379 36.001
rfemur 2.33892 9.08457 26.3385
rtibia 22.1649
rfoot -15.6295 7.97463
rtoes 6.44936
lfemur -0.983369 -9.01586 -9.88592
ltibia 30.6152
lfoot -26.962 -16.6818
ltoes -0.241094
434
root 3.32556 17.6026 -1.18669 -142.448 82.2323 -134.839
lowerback 14.8387 2.3064 -1.3016
upperback 6.65717 3.25296 -0.0234616
thorax -1.34124 1.76371 0.195411
lowerneck 1.50118 -2.9998 5.22954
upperneck 2.08902 -3.90882 1.2451
head 0.31433 -1.8923 -0.464589
rclavicle -2.8625e-014 1.98785e-014
rhumerus -45.1067 12.3895 -83.4387
rradius 58.6992
rwrist -6.64496
rhand -9.19729 -16.7805
rfingers 7.12502
rthumb 16.7565 -46.0774
lclavicle -2.8625e-014 1.98785e-014
lhumerus -60.378 -2.50905 75.4035
lradius 61.0985
lwrist 3.71376
lhand -6.62667 6.74739
lfingers 7.12502
lthumb 19.2298 35.8167
rfemur 2.88428 9.00715 26.4394
rtibia 21.9606
rfoot -15.6094 8.65675
rtoes 6.8145
lfemur -0.101026 -8.83268 -9.8964
ltibia 30.342
lfoot -27.1726 -16.2711
ltoes -0.414533
435
root 3.36887 17.5941 -1.19427 -138.784 82.6151 -130.884
lowerback 14.3068 2.29796 -1.47761
upperback 6.49901 3.20281 -0.145455
thorax -1.22659 1.7283 0.194952
lowerneck 1.55418 -2.74326 5.31809
upperneck 2.67225 -3.57079 1.32134
head 0.490187 -1.70452 -0.462655
rclavicle -4.47266e-014 5.00937e-014
rhumerus -45.3413 12.394 -83.6135
rradius 58.4132
rwrist -6.37178
rhand -9.02265 -16.7108
rfingers 7.12502
rthumb 16.9246 -45.9933
lclavicle -4.47266e-014 5.00937e-014
lhumerus -60.2406 -2.55364 75.108
lradius 61.2898
lwrist 3.67682
lhand -6.76752 6.54584
lfingers 7.12502
lthumb 19.0944 35.6285
rfemur 3.37569 8.91092 26.5465
rtibia 21.7634
rfoot -15.582 9.32786
rtoes 7.16472
lfemur 0.713506 -8.66021 -9.8801
ltibia 30.0926
lfoot -27.3789 -15.8677
ltoes -0.581194
